<svg width="143" height="37" viewBox="0 0 143 37" fill="none" xmlns="http://www.w3.org/2000/svg">
<path d="M24.4088 36.6756L16.4846 36.7166C13.531 36.7318 11.1137 34.3057 11.0987 31.3061L11.0703 25.6397L1.03503 25.6915C0.53488 25.6941 0.125853 25.2833 0.123308 24.7756L0.0829801 16.7314C0.0679544 13.7342 2.4611 11.2833 5.41439 11.268L10.9981 11.2392L10.947 1.05052C10.9461 0.860829 11.0024 0.683229 11.1 0.534564C11.2615 0.288411 11.5359 0.126683 11.8492 0.125066L19.7737 0.0841501C22.7294 0.0688891 25.1443 2.49745 25.1593 5.49705L25.1878 11.1659L35.2255 11.1141C35.7255 11.1115 36.1347 11.5199 36.1372 12.0299L36.1775 20.0693C36.1926 23.0689 33.7993 25.5223 30.8438 25.5376L25.26 25.5664L23.4461 25.5758L23.4839 33.1277L25.2685 27.2668L25.311 35.7504C25.3136 36.2605 24.9088 36.6731 24.4088 36.6756ZM17.2552 18.0879C15.2999 18.098 13.9878 19.4844 13.9978 21.4663L14.0111 24.1186L14.4708 24.3788C14.7199 24.3775 15.1916 24.2075 15.3576 24.3742C17.7521 24.6002 14.9142 24.3765 12.6686 24.1255C12.7987 24.2827 14.8342 23.5557 14.8353 23.7791L17.0686 24.3654C17.0786 26.3497 17.3973 25.2637 19.3528 25.2536L21.1629 25.5875L23.4461 25.5758L17.2929 25.6075C16.3763 25.6123 15.5248 25.3082 14.8404 24.7919C14.5257 24.558 14.2464 24.2777 14.0103 23.9607C13.4922 23.2687 13.1818 22.4056 13.1771 21.4705C13.166 19.253 14.8753 17.4274 17.0332 17.2997C17.1347 15.1107 18.9185 13.3551 21.1015 13.3439C23.3605 13.3322 25.2079 15.188 25.2194 17.4808L25.2281 19.2094L23.4334 23.0449L23.4368 23.7347L25.2507 23.7253L24.707 16.2258C26.6645 16.2157 26.8918 25.399 26.8819 23.4147L22.4026 14.4377L24.2902 13.0116C23.79 13.0142 23.381 12.6034 23.3785 12.0958L23.3455 5.50641C23.3355 3.52207 25.8335 14.42 23.8808 14.4301L21.9592 14.44L17.8053 16.6399C17.8079 17.1475 19.33 21.7435 13.989 16.7312L17.2552 18.0879ZM17.2604 19.1347C16.004 19.1412 14.9846 20.186 14.991 21.4612C14.9974 22.7387 16.0272 23.773 17.2837 23.7665L23.4368 23.7347L23.4055 17.4902C23.3992 16.2151 22.3696 15.1784 21.1107 15.1849C19.8542 15.1914 18.8349 16.2386 18.8413 17.5138C18.8422 17.7057 18.865 17.895 18.9114 18.0793C18.9919 18.3923 18.9026 18.723 18.6762 18.955C18.5059 19.1297 18.2766 19.2259 18.0404 19.2271C17.9667 19.2275 17.892 19.2187 17.8182 19.1998C17.6361 19.1546 17.4493 19.1337 17.2604 19.1347Z" fill="#3497F9"/>
<rect width="1.795" height="7.83304" transform="matrix(0.999987 -0.00516318 0.0050132 0.999987 23.4451 25.2961)" fill="#3497F9"/>
<rect width="1.795" height="4.91842" transform="matrix(0.999987 -0.00516313 0.00501324 0.999987 23.4062 18.9204)" fill="#3497F9"/>
<path d="M46.6814 27.2204C48.5339 26.2381 49.4564 24.9912 49.4488 23.4794L49.4079 15.3233L46.9558 15.3359L46.9456 13.3057L52.1135 13.279L52.1648 23.5006C52.1703 24.6139 51.7712 25.6443 50.9673 26.5918C50.1635 27.5393 49.0364 28.2922 47.586 28.8505L46.6814 27.2204ZM64.4254 13.2154L67.1852 13.2012L67.2492 25.9628L64.4894 25.977L64.4621 20.5191L59.1887 20.5463L59.216 26.0043L56.4651 26.0185L56.4011 13.2569L59.1521 13.2427L59.1782 18.4633L64.4516 18.4361L64.4254 13.2154ZM76.9475 12.9926C77.6213 12.9891 78.2927 13.0735 78.9615 13.2459C79.6362 13.4123 80.2409 13.6494 80.7757 13.9572L79.9679 15.8686C79.4627 15.631 78.9961 15.4606 78.5678 15.3573C78.1454 15.2481 77.7174 15.1947 77.2838 15.1969C76.0709 15.2032 75.1499 15.5742 74.5208 16.3098C73.8975 17.0455 73.5893 18.1106 73.5963 19.5051C73.6034 20.9231 73.9223 21.9966 74.5529 22.7258C75.1894 23.4491 76.114 23.8076 77.3269 23.8013C78.2644 23.7965 79.2418 23.5776 80.2592 23.1446L80.9373 25.1538C79.6219 25.7465 78.3021 26.0463 76.9778 26.0532C74.9857 26.0635 73.4565 25.5118 72.3904 24.3981C71.3242 23.2786 70.7859 21.67 70.7753 19.5724C70.7686 18.2189 71.0088 17.0487 71.496 16.0618C71.9833 15.0749 72.6885 14.3183 73.6116 13.792C74.5407 13.2657 75.6526 12.9993 76.9475 12.9926ZM94.9445 12.8997C95.6183 12.8962 96.2897 12.9806 96.9585 13.1529C97.6332 13.3194 98.2379 13.5565 98.7727 13.8643L97.9648 15.7757C97.4597 15.5381 96.9931 15.3676 96.5648 15.2644C96.1424 15.1552 95.7144 15.1018 95.2808 15.104C94.0679 15.1103 93.1469 15.4812 92.5178 16.2169C91.8945 16.9526 91.5863 18.0177 91.5933 19.4122C91.6004 20.8301 91.9193 21.9037 92.5499 22.6329C93.1864 23.3562 94.111 23.7147 95.3239 23.7084C96.2614 23.7036 97.2388 23.4847 98.2562 23.0517L98.9343 25.0609C97.6189 25.6536 96.299 25.9534 94.9748 25.9603C92.9827 25.9705 91.4535 25.4189 90.3874 24.3052C89.3212 23.1857 88.7829 21.5771 88.7723 19.4795C88.7656 18.126 89.0058 16.9558 89.493 15.9689C89.9803 14.982 90.6855 14.2254 91.6086 13.6991C92.5377 13.1728 93.6496 12.9063 94.9445 12.8997ZM101.918 12.2484L104.617 12.2345L104.685 25.7695L101.986 25.7834L101.918 12.2484ZM108.704 12.521L111.402 12.5071L111.414 14.968L108.716 14.9819L108.704 12.521ZM108.723 16.4233L111.421 16.4094L111.468 25.7345L108.77 25.7484L108.723 16.4233ZM117.991 17.5796C118.819 16.6026 119.909 16.1107 121.262 16.1037C122.247 16.0986 123.007 16.3847 123.543 16.962C124.079 17.5335 124.35 18.3465 124.355 19.4012L124.387 25.6678L121.688 25.6817L121.658 19.5646C121.655 19.0138 121.545 18.6159 121.327 18.3709C121.109 18.126 120.759 18.0047 120.279 18.0072C119.845 18.0095 119.441 18.1111 119.067 18.3123C118.693 18.5076 118.393 18.7728 118.166 19.108L118.199 25.6997L115.492 25.7137L115.445 16.2831L117.695 16.2715L117.991 17.5796ZM128.16 12.4205L130.858 12.4066L130.87 14.8675L128.172 14.8814L128.16 12.4205ZM128.179 16.3228L130.877 16.3089L130.924 25.634L128.226 25.6479L128.179 16.3228ZM139.084 16.0117C140.045 16.0067 140.957 16.2246 141.82 16.6655L141.232 18.4527C140.591 18.1221 139.972 17.9583 139.375 17.9614C138.595 17.9654 137.993 18.2204 137.568 18.7266C137.149 19.2326 136.941 19.9456 136.946 20.8655C136.95 21.7796 137.171 22.4845 137.607 22.9803C138.049 23.4761 138.68 23.7219 139.5 23.7176C140.174 23.7142 140.832 23.5672 141.476 23.2768L141.915 25.1114C141.483 25.307 141.015 25.4589 140.511 25.5669C140.008 25.675 139.528 25.7302 139.071 25.7326C137.512 25.7406 136.318 25.3278 135.487 24.4942C134.657 23.6606 134.238 22.4557 134.23 20.8796C134.222 19.3444 134.641 18.1528 135.487 17.3047C136.332 16.4507 137.531 16.0197 139.084 16.0117Z" fill="#3497F9"/>
</svg>
